<?xml version="1.0" encoding="UTF-8"?>
<svg width="128px" height="128px" viewBox="0 0 128 128" version="1.1" xmlns="http://www.w3.org/2000/svg" xmlns:xlink="http://www.w3.org/1999/xlink">
    <!-- Generator: Sketch 49.1 (51147) - http://www.bohemiancoding.com/sketch -->
    <title>icon 2</title>
    <desc>Created with Sketch.</desc>
    <defs></defs>
    <g id="Page-1" stroke="none" stroke-width="1" fill="none" fill-rule="evenodd">
        <g id="icon" fill-rule="nonzero">
            <path d="M0.667,63.549 C0.667,28.569 29.022,0.215 63.999,0.215 C98.978,0.215 127.333,28.569 127.333,63.549 C127.333,98.525 98.978,126.882 63.999,126.882 C29.022,126.882 0.667,98.525 0.667,63.549 Z" id="Shape" fill="#284A9F"></path>
            <path d="M108.966,18.947 C133.699,43.681 133.701,83.78 108.966,108.515 C84.234,133.247 44.132,133.247 19.398,108.515 L108.966,18.947 Z" id="Shape" fill="#24488E"></path>
            <path d="M125.405,79.09 L80.739,34.423 L71.664,43.498 L52.333,40.834 L54.33,60.832 L44.923,70.239 L63.926,89.24 L64.257,102.238 L85.24,123.22 C104.989,116.189 120.22,99.642 125.405,79.09 Z" id="Shape" fill="#24488E"></path>
            <path d="M88.617,46.709 C88.354,45.721 87.819,44.669 87.424,43.748 C82.686,32.364 72.336,28.284 63.979,28.284 C52.791,28.284 40.468,35.784 38.823,51.25 L38.823,54.409 C38.823,54.54 38.868,55.724 38.934,56.317 C39.856,63.687 45.67,71.519 50.013,78.888 C54.685,86.784 59.534,94.55 64.338,102.316 C67.299,97.25 70.25,92.117 73.145,87.179 C73.934,85.732 74.85,84.284 75.64,82.903 C76.165,81.982 77.171,81.06 77.631,80.205 C82.303,71.651 89.823,63.029 89.823,54.54 L89.823,51.052 C89.822,50.132 88.683,46.907 88.617,46.709 Z M64.183,62.568 C60.894,62.568 57.295,60.923 55.518,56.382 C55.253,55.659 55.274,54.211 55.274,54.078 L55.274,52.037 C55.274,46.248 60.191,43.615 64.467,43.615 C69.732,43.615 73.803,47.826 73.803,53.091 C73.803,58.358 69.447,62.568 64.183,62.568 Z" id="Facebook_Places_3_" fill="#FFFFFF"></path>
        </g>
    </g>
</svg>