<svg width="305" height="305" viewBox="0 0 305 305" fill="none" xmlns="http://www.w3.org/2000/svg">
<mask id="mask0_13_852" style="mask-type:alpha" maskUnits="userSpaceOnUse" x="0" y="0" width="305" height="305">
<path d="M0 152.5C0 26.9162 26.9162 0 152.5 0C278.084 0 305 26.9162 305 152.5C305 278.084 278.084 305 152.5 305C26.9162 305 0 278.084 0 152.5Z" fill="#C4C4C4"/>
</mask>
<g mask="url(#mask0_13_852)">
<rect width="305" height="305" transform="translate(-1)" fill="#FACA30"/>
<path d="M208.21 109.558C207.601 107.276 206.363 104.846 205.449 102.719C194.487 76.424 170.54 67 151.204 67C125.318 67 96.8061 84.3236 93 120.047V127.344C93 127.646 93.1041 130.381 93.2568 131.751C95.3901 148.774 108.842 166.865 118.891 183.886C129.7 202.124 140.92 220.062 152.035 238C158.886 226.298 165.713 214.442 172.412 203.036C174.237 199.694 176.357 196.349 178.184 193.16C179.399 191.032 181.727 188.903 182.791 186.928C193.601 167.17 211 147.254 211 127.646V119.59C210.998 117.465 208.362 110.016 208.21 109.558ZM151.676 146.19C144.066 146.19 135.739 142.39 131.628 131.901C131.015 130.231 131.063 126.886 131.063 126.579V121.865C131.063 108.493 142.44 102.412 152.333 102.412C164.515 102.412 173.934 112.138 173.934 124.3C173.934 136.465 163.856 146.19 151.676 146.19Z" fill="black"/>
</g>
</svg>
